{"title":"Cowboys And Aliens 2011 PPVRIP IFLIX","uid":6729838,"size":1966084457,"categoryP":"video","categoryS":"movies","magnet":"?xt=urn:btih:e420780132d0fbf2ee80b2a0db588647266ea03d&amp;dn=Cowboys+And+Aliens+2011+PPVRIP+IFLIX&amp;tr=udp%3A%2F%2Ftracker.openbittorrent.com%3A80&amp;tr=udp%3A%2F%2Fopen.demonii.com%3A1337&amp;tr=udp%3A%2F%2Ftracker.coppersurfer.tk%3A6969&amp;tr=udp%3A%2F%2Fexodus.desync.com%3A6969","seeders":0,"leechers":0,"uploader":"IwannaFan2","files":7,"time":1318090440,"description":"Cowboys And Aliens 2011 PPVRIP IFLIX &lt;a href=&quot;\nhttp://www.imdb.com/title/tt0409847/&quot; rel=&quot;nofollow&quot; target=&quot;_NEW&quot;&gt;\nhttp://www.imdb.com/title/tt0409847/&lt;/a&gt;\nAction\n\nLanguage                         : English\nFormat                           : AVI\nFormat/Info                      : Audio Video Interleave\nFormat profile                   : OpenDML\nFile size                        : 1.82 GiB\nDuration                         : 1h 58mn\nOverall bit rate                 : 2 211 Kbps\n\nVideo\nID                               : 0\nFormat                           : MPEG-4 Visual\nFormat profile                   : Simple@L3\nFormat settings, BVOP            : No\nFormat settings, QPel            : No\nFormat settings, GMC             : No warppoints\nFormat settings, Matrix          : Default (H.263)\nCodec ID                         : XVID\nCodec ID/Hint                    : XviD\nDuration                         : 1h 58mn\nBit rate                         : 2 066 Kbps\nWidth                            : 640 pixels\nHeight                           : 480 pixels\nDisplay aspect ratio             : 4:3\nFrame rate                       : 29.970 fps\nOriginal frame rate              : 29.000 fps\nResolution                       : 24 bits\nColorimetry                      : 4:2:0\nScan type                        : Progressive\nBits/(Pixel*Frame)               : 0.224\nStream size                      : 1.70 GiB (93%)\nWriting library                  : XviD 1.2.1 (UTC 2008-12-04)\n\nAudio\nID                               : 1\nFormat                           : MPEG Audio\nFormat version                   : Version 1\nFormat profile                   : Layer 3\nFormat_Settings_Mode             : Joint stereo / MS Stereo\nCodec ID                         : 55\nCodec ID/Hint                    : MP3\nDuration                         : 1h 58mn\nBit rate mode                    : Constant\nBit rate                         : 128 Kbps\nChannel(s)                       : 2 channels\nSampling rate                    : 44.1 KHz\nResolution                       : 16 bits\nStream size                      : 108 MiB (6%)\nAlignment                        : Aligned on interleaves\nInterleave, duration             : 26 ms (0.78 video frame)\nWriting library                  : LAME3.98.2\n\nRelease notes...\n\nAnother quality release from IFLIX\nMore to come very soon!\n\nVideo source: Ours\nAudio source: Ours\n\nGreetings to all other groups out there. You all do awesome work and we greatly appreciate it.\nIFLIX :-)","torrent":{"xt":"urn:btih:e420780132d0fbf2ee80b2a0db588647266ea03d","amp;dn":"Cowboys+And+Aliens+2011+PPVRIP+IFLIX","amp;tr":["udp%3A%2F%2Ftracker.openbittorrent.com%3A80","udp%3A%2F%2Fopen.demonii.com%3A1337","udp%3A%2F%2Ftracker.coppersurfer.tk%3A6969","udp%3A%2F%2Fexodus.desync.com%3A6969"],"infoHash":"e420780132d0fbf2ee80b2a0db588647266ea03d","infoHashBuffer":{"type":"Buffer","data":[228,32,120,1,50,208,251,242,238,128,178,160,219,88,134,71,38,110,160,61]},"announce":[],"urlList":[]}}